<svg width="28" height="28" viewBox="0 0 28 28" fill="none" xmlns="http://www.w3.org/2000/svg">
<g clip-path="url(#clip0_1597_18366)">
<path d="M22.4933 22.0967H9.49667C8.35334 22.0967 7.43167 21.1633 7.43167 20.0083V4.63167C7.43167 3.47667 8.35334 2.54333 9.49667 2.54333H19.81L24.5583 7.39667V19.9967C24.5583 21.1517 23.6367 22.085 22.4933 22.085V22.0967Z" stroke="#2297BE" stroke-width="1.5" stroke-linecap="round" stroke-linejoin="round"/>
<path d="M18.3283 2.54333V6.02C18.3283 7.385 19.4367 8.49334 20.8017 8.49334H24.5583" stroke="#2297BE" stroke-width="1.5" stroke-linecap="round" stroke-linejoin="round"/>
<path d="M20.5567 22.0967V23.5317C20.5567 24.6867 19.635 25.62 18.4917 25.62H5.50668C4.36335 25.62 3.44168 24.6867 3.44168 23.5317V8.15501C3.44168 7.00001 4.36335 6.06668 5.50668 6.06668H7.44335" stroke="#2297BE" stroke-width="1.5" stroke-linecap="round" stroke-linejoin="round"/>
<path d="M19.11 15.3067C19.915 14.5017 19.9033 13.195 19.11 12.39C18.305 11.5967 16.9983 11.5967 16.1933 12.4017L16.0067 12.5883L15.82 12.4017C15.0267 11.5967 13.72 11.585 12.915 12.39C12.11 13.195 12.0983 14.49 12.9033 15.3067L15.7033 18.13C15.8667 18.2933 16.1467 18.2933 16.31 18.13L19.11 15.3067Z" stroke="#2297BE" stroke-width="1.5" stroke-linecap="round" stroke-linejoin="round"/>
</g>
<defs>
<clipPath id="clip0_1597_18366">
<rect width="28" height="28" fill="white"/>
</clipPath>
</defs>
</svg>
