<svg width="28" height="28" viewBox="0 0 28 28" fill="none" xmlns="http://www.w3.org/2000/svg">
<path d="M9.57461 10.321L16.8436 3.066C16.8793 3.03189 16.9234 3.00785 16.9715 2.99635L19.0301 2.34631C19.0841 2.3309 19.1411 2.3292 19.1959 2.34136C19.2508 2.35352 19.3017 2.37916 19.3441 2.41595L21.5887 4.6679C21.631 4.70931 21.6601 4.76218 21.6725 4.81996C21.6849 4.87773 21.68 4.93787 21.6585 4.99292L20.8793 7.12878C20.863 7.1678 20.8393 7.20329 20.8095 7.23325L13.6801 14.3489C13.6219 14.4036 13.5449 14.4341 13.4649 14.4341C13.385 14.4341 13.308 14.4036 13.2498 14.3489L9.57461 10.7621C9.51903 10.702 9.48816 10.6233 9.48816 10.5415C9.48816 10.4598 9.51903 10.381 9.57461 10.321V10.321Z" stroke="#2297BE" stroke-width="1.5" stroke-miterlimit="10"/>
<path d="M9.66774 11.6559L7.8883 13.4319C7.85523 13.4633 7.82889 13.5012 7.8109 13.5431C7.79291 13.585 7.78363 13.6301 7.78363 13.6757C7.78363 13.7213 7.79291 13.7664 7.8109 13.8083C7.82889 13.8502 7.85523 13.888 7.8883 13.9194L9.99339 16.0205C10.06 16.0817 10.1471 16.1156 10.2376 16.1156C10.3281 16.1156 10.4153 16.0817 10.4819 16.0205L12.4241 14.0819" stroke="#2297BE" stroke-width="1.5" stroke-miterlimit="10"/>
<path d="M4.66666 19.5841H9.60954" stroke="#2297BE" stroke-width="1.5" stroke-miterlimit="10" stroke-linecap="round"/>
<path d="M5.03885 25.6667H23.3333" stroke="#2297BE" stroke-width="1.5" stroke-miterlimit="10" stroke-linecap="round"/>
<path d="M11.5053 22.9388C9.70623 22.4049 8.14067 21.28 7.0625 19.7466" stroke="#2297BE" stroke-width="1.5" stroke-miterlimit="10" stroke-linecap="round"/>
<path d="M19.4372 8.80032C20.5089 9.75743 21.3136 10.9756 21.7727 12.3358C22.2318 13.6961 22.3297 15.1519 22.0566 16.5611C21.7836 17.9704 21.1491 19.2849 20.215 20.3762C19.281 21.4676 18.0793 22.2985 16.7273 22.7879" stroke="#2297BE" stroke-width="1.5" stroke-miterlimit="10" stroke-linecap="round"/>
<path d="M14.1221 25.6551C15.4903 25.6551 16.5994 24.5481 16.5994 23.1826C16.5994 21.8171 15.4903 20.7101 14.1221 20.7101C12.754 20.7101 11.6449 21.8171 11.6449 23.1826C11.6449 24.5481 12.754 25.6551 14.1221 25.6551Z" stroke="#2297BE" stroke-width="1.5" stroke-miterlimit="10" stroke-linecap="round"/>
<path d="M9.57461 10.321L16.8436 3.066C16.8793 3.03189 16.9234 3.00785 16.9715 2.99635L19.0301 2.34631C19.0841 2.3309 19.1411 2.3292 19.1959 2.34136C19.2508 2.35352 19.3017 2.37916 19.3441 2.41595L21.5887 4.6679C21.631 4.70931 21.6601 4.76218 21.6725 4.81996C21.6849 4.87773 21.68 4.93787 21.6585 4.99292L20.8793 7.12878C20.863 7.1678 20.8393 7.20329 20.8095 7.23325L13.6801 14.3489C13.6219 14.4036 13.5449 14.4341 13.4649 14.4341C13.385 14.4341 13.308 14.4036 13.2498 14.3489L9.57461 10.7621C9.51903 10.702 9.48816 10.6233 9.48816 10.5415C9.48816 10.4598 9.51903 10.381 9.57461 10.321V10.321Z" stroke="#2297BE" stroke-width="1.5" stroke-miterlimit="10"/>
<path d="M9.66774 11.6559L7.8883 13.4319C7.85523 13.4633 7.82889 13.5012 7.8109 13.5431C7.79291 13.585 7.78363 13.6301 7.78363 13.6757C7.78363 13.7213 7.79291 13.7664 7.8109 13.8083C7.82889 13.8502 7.85523 13.888 7.8883 13.9194L9.99339 16.0205C10.06 16.0817 10.1471 16.1156 10.2376 16.1156C10.3281 16.1156 10.4153 16.0817 10.4819 16.0205L12.4241 14.0819" stroke="#2297BE" stroke-width="1.5" stroke-miterlimit="10"/>
<path d="M4.66666 19.5841H9.60954" stroke="#2297BE" stroke-width="1.5" stroke-miterlimit="10" stroke-linecap="round"/>
<path d="M5.03885 25.6667H23.3333" stroke="#2297BE" stroke-width="1.5" stroke-miterlimit="10" stroke-linecap="round"/>
<path d="M11.5053 22.9388C9.70623 22.4049 8.14067 21.28 7.0625 19.7466" stroke="#2297BE" stroke-width="1.5" stroke-miterlimit="10" stroke-linecap="round"/>
<path d="M19.4372 8.80032C20.5089 9.75743 21.3136 10.9756 21.7727 12.3358C22.2318 13.6961 22.3297 15.1519 22.0566 16.5611C21.7836 17.9704 21.1491 19.2849 20.215 20.3762C19.281 21.4676 18.0793 22.2985 16.7273 22.7879" stroke="#2297BE" stroke-width="1.5" stroke-miterlimit="10" stroke-linecap="round"/>
<path d="M14.1221 25.6551C15.4903 25.6551 16.5994 24.5481 16.5994 23.1826C16.5994 21.8171 15.4903 20.7101 14.1221 20.7101C12.754 20.7101 11.6449 21.8171 11.6449 23.1826C11.6449 24.5481 12.754 25.6551 14.1221 25.6551Z" stroke="#2297BE" stroke-width="1.5" stroke-miterlimit="10" stroke-linecap="round"/>
</svg>
