<svg width="28" height="28" viewBox="0 0 28 28" fill="none" xmlns="http://www.w3.org/2000/svg">
<g clip-path="url(#clip0_1597_18361)">
<path d="M13.8833 3.51166H7.50167C7.1344 3.51166 6.83667 3.80939 6.83667 4.17666V5.86832C6.83667 6.23559 7.1344 6.53332 7.50167 6.53332H13.8833C14.2506 6.53332 14.5483 6.23559 14.5483 5.86832V4.17666C14.5483 3.80939 14.2506 3.51166 13.8833 3.51166Z" stroke="#2297BE" stroke-width="1.5" stroke-linecap="round" stroke-linejoin="round"/>
<path d="M13.475 6.69666V8.155L15.9367 9.835C16.6483 10.43 17.0333 11.34 16.94 12.2617V23.7533C16.94 24.1617 16.6133 24.5 16.1933 24.5H5.17999C4.77165 24.5 4.43332 24.1733 4.43332 23.765V12.25C4.35165 11.3283 4.72499 10.4183 5.43665 9.82333L7.89832 8.14333V6.685" stroke="#2297BE" stroke-width="1.5" stroke-linecap="round" stroke-linejoin="round"/>
<path d="M21.84 16.6833C22.7266 16.6833 23.45 17.4067 23.45 18.2933V22.89C23.45 23.7767 22.7266 24.5 21.84 24.5C20.9533 24.5 20.23 23.7767 20.23 22.89V18.2933C20.23 17.4067 20.9533 16.6833 21.84 16.6833Z" stroke="#2297BE" stroke-width="1.5" stroke-linecap="round" stroke-linejoin="round"/>
<path d="M20.3933 20.58H23.4383" stroke="#2297BE" stroke-width="1.5" stroke-linecap="round" stroke-linejoin="round"/>
<path d="M4.43335 14.7117H16.94" stroke="#2297BE" stroke-width="1.5" stroke-linecap="round" stroke-linejoin="round"/>
<path d="M4.43335 19.4716H16.94" stroke="#2297BE" stroke-width="1.5" stroke-linecap="round" stroke-linejoin="round"/>
</g>
<defs>
<clipPath id="clip0_1597_18361">
<rect width="28" height="28" fill="white"/>
</clipPath>
</defs>
</svg>
